<svg width="50" height="21" viewBox="0 0 50 21" fill="none" xmlns="http://www.w3.org/2000/svg">
<path d="M40.8867 20.9436C43.1505 20.9436 44.2159 20.0798 45.1466 17.4616L49.2237 6.0261H46.8631L44.1291 14.8733H44.0811L41.3471 6.03808H38.9196L42.8529 16.9224L42.6422 17.5844C42.4934 18.5321 41.6426 19.2081 40.685 19.1382C40.5023 19.1382 40.1478 19.1192 40.004 19.1002V20.8976C40.2966 20.9376 40.5922 20.9566 40.8867 20.9556V20.9436ZM33.0201 15.2168C31.7819 15.2168 30.996 14.6177 30.996 13.711C30.996 12.7714 31.7539 12.2242 33.2028 12.1373L35.7831 11.9745V12.8193C35.7262 14.2113 34.5509 15.2947 33.1589 15.2378C33.1119 15.2358 33.066 15.2318 33.0201 15.2278V15.2168ZM32.397 16.9913C33.802 17.0292 35.1161 16.2973 35.822 15.082H35.87V16.8794H38.0189V9.43518C38.0189 7.27629 36.2924 5.8853 33.6342 5.8853C31.1688 5.8853 29.3454 7.29526 29.2785 9.23347H31.3705C31.6201 8.24789 32.5567 7.59783 33.5673 7.70767C34.9872 7.70767 35.7831 8.36971 35.7831 9.58796V10.4128L32.8873 10.5855C30.1912 10.7483 28.7333 11.8517 28.7333 13.7709C28.7313 15.7171 30.2371 17.0023 32.396 17.0023L32.397 16.9913ZM19.9439 3.8772H22.6201C24.6352 3.8772 25.7865 4.95165 25.7865 6.84192C25.7865 8.73219 24.6352 9.81563 22.6111 9.81563H19.9439V3.8772ZM17.6223 1.92002V16.8764H19.9439V11.7778H23.1583C25.7765 11.9186 28.0123 9.91049 28.1531 7.29227C28.1611 7.14348 28.1621 6.9957 28.1561 6.84691C28.2799 4.25765 26.2818 2.05882 23.6925 1.934C23.5398 1.92701 23.388 1.92801 23.2352 1.935L17.6223 1.92002ZM9.91641 4.71099C8.58233 4.6341 7.44098 5.4689 6.80789 5.4689C6.17481 5.4689 5.19622 4.74994 4.14074 4.76991C2.74275 4.80586 1.46859 5.57974 0.792567 6.80397C-0.646358 9.2794 0.418109 12.9441 1.8091 14.9582C2.49012 15.9568 3.30694 17.0502 4.38039 17.0112C5.39693 16.9733 5.80034 16.3492 7.02857 16.3492C8.2568 16.3492 8.62127 17.0112 9.69573 16.9913C10.8081 16.9723 11.5091 15.9927 12.1921 14.9942C12.6734 14.2872 13.0479 13.5133 13.3045 12.6975C11.9934 12.1243 11.1436 10.8332 11.1366 9.40222C11.1566 8.14005 11.8177 6.97573 12.8921 6.31368C12.2071 5.34108 11.1077 4.74395 9.9184 4.70201L9.91641 4.71099ZM9.08361 3.3899C8.49945 4.12584 7.60574 4.54823 6.66609 4.53125C6.60618 3.61458 6.91773 2.71288 7.52985 2.02786C8.13897 1.32088 8.99773 0.877524 9.92639 0.790649C9.9923 1.73329 9.68973 2.66395 9.08161 3.3869" fill="#010103"/>
</svg>
