<svg width="18" height="14" viewBox="0 0 18 14" fill="none" xmlns="http://www.w3.org/2000/svg">
<path opacity="0.4" d="M10.4586 5.08586V3.40265C10.1281 3.40265 9.85412 3.13647 9.85412 2.81549V0.811301C9.85412 0.544337 9.63652 0.33374 9.36251 0.33374H3.82576C2.08494 0.33374 0.666504 1.71084 0.666504 3.40265V5.42955C0.666504 5.58691 0.730978 5.73565 0.843809 5.84526C0.956639 5.95408 1.10977 6.01671 1.27095 6.01671C1.88346 6.01671 2.3509 6.43947 2.3509 6.99532C2.3509 7.57544 1.8754 8.03734 1.27901 8.04439C0.94858 8.04439 0.666504 8.27142 0.666504 8.60023V10.6052C0.666504 12.2962 2.08494 13.6663 3.8177 13.6663H9.36251C9.63652 13.6663 9.85412 13.4541 9.85412 13.1887V11.4969C9.85412 11.1689 10.1281 10.9097 10.4586 10.9097V9.39173C10.1281 9.39173 9.85412 9.12477 9.85412 8.80457V5.67302C9.85412 5.35204 10.1281 5.08586 10.4586 5.08586Z" fill="#C7A17A"/>
<path d="M15.6487 6.99561C15.6487 7.57495 16.1323 8.03685 16.7206 8.04468C17.051 8.04468 17.3331 8.27172 17.3331 8.5927V10.6047C17.3331 12.2965 15.9227 13.6666 14.1819 13.6666H11.5546C11.2886 13.6666 11.0629 13.4544 11.0629 13.1882V11.4972C11.0629 11.1684 10.797 10.91 10.4585 10.91V9.39203C10.797 9.39203 11.0629 9.12506 11.0629 8.80486V5.67332C11.0629 5.35155 10.797 5.08615 10.4585 5.08615V3.40217C10.797 3.40217 11.0629 3.13598 11.0629 2.815V0.811595C11.0629 0.544631 11.2886 0.333252 11.5546 0.333252H14.1819C15.9227 0.333252 17.3331 1.7033 17.3331 3.39434V5.36721C17.3331 5.52379 17.2686 5.67332 17.1558 5.78214C17.043 5.89174 16.8898 5.95437 16.7286 5.95437C16.1323 5.95437 15.6487 6.42489 15.6487 6.99561Z" fill="#C7A17A"/>
</svg>
