<svg width="28" height="10" viewBox="0 0 28 10" fill="none" xmlns="http://www.w3.org/2000/svg">
<path d="M18.2374 0.5C16.2493 0.5 14.4726 1.52227 14.4726 3.411C14.4726 5.57701 17.6236 5.72662 17.6236 6.81476C17.6236 7.27293 17.0944 7.68307 16.1904 7.68307C14.9074 7.68307 13.9486 7.10999 13.9486 7.10999L13.5383 9.01592C13.5383 9.01592 14.6429 9.5 16.1094 9.5C18.283 9.5 19.9934 8.42754 19.9934 6.50651C19.9934 4.21773 16.8293 4.07257 16.8293 3.06259C16.8293 2.70368 17.2638 2.31042 18.1652 2.31042C19.1823 2.31042 20.012 2.72721 20.012 2.72721L20.4136 0.886397C20.4136 0.886397 19.5107 0.5 18.2374 0.5ZM0.04814 0.638929L0 0.916787C0 0.916787 0.836401 1.06864 1.58972 1.37156C2.55967 1.71892 2.62877 1.92114 2.79212 2.5492L4.57221 9.35673H6.95842L10.6346 0.638929H8.25383L5.89168 6.56621L4.92779 1.54197C4.83939 0.966948 4.39163 0.638929 3.84354 0.638929H0.04814ZM11.5919 0.638929L9.72429 9.35673H11.9945L13.8556 0.638929H11.5919ZM24.2538 0.638929C23.7064 0.638929 23.4163 0.929684 23.2035 1.43777L19.8775 9.35673H22.2582L22.7188 8.0369H25.6193L25.8993 9.35673H28L26.1674 0.638929H24.2538ZM24.5635 2.99421L25.2691 6.26556H23.3786L24.5635 2.99421Z" fill="#1434CB"/>
</svg>
