<svg width="47" height="14" viewBox="0 0 47 14" fill="none" xmlns="http://www.w3.org/2000/svg">
<path d="M11.3849 3.14087C11.7001 3.53481 11.9364 3.96814 12.1334 4.44087L6.34248 8.7742L3.93945 7.19845V5.34693L6.34248 6.88329L11.3849 3.14087Z" fill="#21A038"/>
<path d="M1.45758 7.08038C1.45758 7.00159 1.45758 6.9228 1.45758 6.84401L0 6.72583C0 6.84401 0 6.9228 0 7.04098C0 7.86825 0.157576 8.73492 0.472727 9.5228C0.787879 10.3107 1.26061 11.0198 1.85152 11.6107L2.87576 10.547C2.40303 10.0743 2.04848 9.5228 1.81212 8.93189C1.57576 8.34098 1.45758 7.71068 1.45758 7.08038Z" fill="url(#paint0_linear_2403_247)"/>
<path d="M6.34214 2.11684C6.42093 2.11684 6.49972 2.11684 6.57851 2.11684L6.65729 0.619873C6.53911 0.619873 6.46032 0.619873 6.34214 0.619873C5.51487 0.619873 4.6876 0.777449 3.93911 1.0926C3.15123 1.40775 2.48153 1.88048 1.89062 2.47139L2.91487 3.53502C3.3482 3.0623 3.89972 2.70775 4.49063 2.47139C5.08153 2.23502 5.71184 2.11684 6.34214 2.11684Z" fill="url(#paint1_linear_2403_247)"/>
<path d="M6.3425 12.0049C6.26371 12.0049 6.18492 12.0049 6.10613 12.0049L6.02734 13.5018C6.14553 13.5018 6.22431 13.5018 6.3425 13.5018C7.16977 13.5018 7.99704 13.3442 8.78492 13.0291C9.5728 12.7139 10.2425 12.2412 10.8334 11.6503L9.80916 10.5867C9.33643 11.0594 8.82431 11.4139 8.2334 11.6503C7.64249 11.8867 7.01219 12.0049 6.3425 12.0049Z" fill="url(#paint2_linear_2403_247)"/>
<path d="M9.09937 2.98351L10.3206 2.07745C9.21755 1.13199 7.79937 0.619873 6.3418 0.619873V2.11684C7.32665 2.11684 8.31149 2.3926 9.09937 2.98351Z" fill="url(#paint3_linear_2403_247)"/>
<path d="M12.7234 7.08066C12.7234 6.68672 12.6841 6.29278 12.6053 5.93823L11.2265 6.92308C11.2265 6.96247 11.2265 7.00187 11.2265 7.04126C11.2265 7.75035 11.0689 8.42005 10.7931 9.05035C10.5174 9.68066 10.1234 10.2322 9.61133 10.7049L10.5962 11.8079C11.2659 11.217 11.778 10.4685 12.1325 9.64126C12.5265 8.85338 12.7234 7.94732 12.7234 7.08066Z" fill="#21A038"/>
<path d="M6.34251 12.005C5.67281 12.005 5.00311 11.8474 4.37281 11.5717C3.74251 11.2959 3.19099 10.8626 2.71826 10.3505L1.61523 11.3353C2.20614 12.005 2.95463 12.5565 3.74251 12.9111C4.56978 13.2656 5.43645 13.4626 6.30311 13.4626V12.005H6.34251Z" fill="url(#paint4_linear_2403_247)"/>
<path d="M3.07273 3.37769L2.08788 2.27466C1.41818 2.86557 0.90606 3.61405 0.551515 4.44132C0.19697 5.2686 0 6.17466 0 7.08072H1.45758C1.45758 6.37163 1.61515 5.70193 1.89091 5.07163C2.16667 4.40193 2.56061 3.85042 3.07273 3.37769Z" fill="url(#paint5_linear_2403_247)"/>
<path d="M36.6745 4.32291L38.4866 2.98352H32.4199V11.0593H38.526V9.68049H34.1927V7.63201H37.8957V6.29261H34.1927V4.32291H36.6745Z" fill="#21A038"/>
<path d="M28.3235 6.09564H26.1962V4.32291H29.5841L31.3962 2.98352H24.4629V11.0593H28.0871C30.1356 11.0593 31.278 10.1532 31.278 8.53807C31.278 6.96231 30.2538 6.09564 28.3235 6.09564ZM28.0083 9.68049H26.1962V7.43504H28.0083C29.1114 7.43504 29.6235 7.82898 29.6235 8.53807C29.6235 9.32595 29.072 9.68049 28.0083 9.68049Z" fill="#21A038"/>
<path d="M42.9771 2.94397H39.668V11.0197H41.4013V8.73488H42.9771C45.1043 8.73488 46.4043 7.63185 46.4043 5.81973C46.4043 4.047 45.1043 2.94397 42.9771 2.94397ZM42.9377 7.39548H41.4013V4.32276H42.9377C44.0407 4.32276 44.671 4.87427 44.671 5.85912C44.671 6.84397 44.0407 7.39548 42.9377 7.39548Z" fill="#21A038"/>
<path d="M21.8628 9.12899C21.4295 9.36536 20.9174 9.48354 20.4053 9.48354C18.8689 9.48354 17.7659 8.38051 17.7659 6.88354C17.7659 5.38657 18.8689 4.28354 20.4053 4.28354C20.9568 4.28354 21.5083 4.44111 21.9416 4.75627L23.1628 3.85021L23.0841 3.81081C22.375 3.18051 21.4295 2.86536 20.3265 2.86536C19.1447 2.86536 18.081 3.2593 17.3325 3.96839C16.9386 4.32293 16.6628 4.79566 16.4265 5.26839C16.2295 5.78051 16.1113 6.29263 16.1113 6.84415C16.1113 7.39566 16.1901 7.90778 16.4265 8.4199C16.6234 8.93202 16.9386 9.36536 17.3325 9.7593C18.081 10.5078 19.1447 10.9411 20.3265 10.9411C21.5477 10.9411 22.6113 10.5078 23.3204 9.7199L22.2174 8.89263L21.8628 9.12899Z" fill="#21A038"/>
<defs>
<linearGradient id="paint0_linear_2403_247" x1="2.16068" y1="11.4312" x2="0.517439" y2="6.74407" gradientUnits="userSpaceOnUse">
<stop offset="0.14" stop-color="#F1E813"/>
<stop offset="0.3" stop-color="#E6E418"/>
<stop offset="0.58" stop-color="#C9DA26"/>
<stop offset="0.89" stop-color="#A2CC39"/>
</linearGradient>
<linearGradient id="paint1_linear_2403_247" x1="2.27196" y1="2.74585" x2="6.41888" y2="1.18648" gradientUnits="userSpaceOnUse">
<stop offset="0.06" stop-color="#0FA7DF"/>
<stop offset="0.54" stop-color="#0098F8"/>
<stop offset="0.92" stop-color="#0290EA"/>
</linearGradient>
<linearGradient id="paint2_linear_2403_247" x1="5.94127" y1="12.6001" x2="10.6209" y2="11.557" gradientUnits="userSpaceOnUse">
<stop offset="0.12" stop-color="#A2CC39"/>
<stop offset="0.28" stop-color="#86C239"/>
<stop offset="0.87" stop-color="#219F38"/>
</linearGradient>
<linearGradient id="paint3_linear_2403_247" x1="6.04004" y1="1.14921" x2="10.045" y2="2.36873" gradientUnits="userSpaceOnUse">
<stop offset="0.06" stop-color="#0290EA"/>
<stop offset="0.79" stop-color="#0C89CA"/>
</linearGradient>
<linearGradient id="paint4_linear_2403_247" x1="2.01756" y1="11.1888" x2="6.38092" y2="12.7979" gradientUnits="userSpaceOnUse">
<stop offset="0.13" stop-color="#F1E813"/>
<stop offset="0.3" stop-color="#EAE616"/>
<stop offset="0.53" stop-color="#D8DF1F"/>
<stop offset="0.8" stop-color="#BAD52D"/>
<stop offset="0.98" stop-color="#A2CC39"/>
</linearGradient>
<linearGradient id="paint5_linear_2403_247" x1="0.516139" y1="7.23077" x2="2.30297" y2="2.64425" gradientUnits="userSpaceOnUse">
<stop offset="0.07" stop-color="#A2CC39"/>
<stop offset="0.26" stop-color="#81C45E"/>
<stop offset="0.92" stop-color="#0FA7DF"/>
</linearGradient>
</defs>
</svg>
