<svg width="56" height="18" viewBox="0 0 56 18" fill="none" xmlns="http://www.w3.org/2000/svg">
<path d="M27.454 8.205C27.603 8.305 27.826 8.379 28.049 8.379C28.397 8.379 28.595 8.205 28.595 7.931C28.595 7.683 28.446 7.559 28.099 7.409C27.677 7.26 27.405 7.037 27.405 6.664C27.405 6.266 27.752 5.968 28.248 5.968C28.521 5.968 28.694 6.018 28.818 6.092L28.718 6.366C28.5679 6.27907 28.3964 6.23578 28.223 6.241C27.876 6.241 27.727 6.465 27.727 6.639C27.727 6.887 27.876 7.012 28.247 7.136C28.694 7.31 28.893 7.509 28.893 7.906C28.893 8.304 28.595 8.652 28 8.652C27.752 8.652 27.479 8.578 27.33 8.478L27.454 8.205ZM29.586 7.733C29.586 8.18 29.884 8.379 30.231 8.379C30.479 8.379 30.628 8.329 30.751 8.279L30.801 8.529C30.677 8.578 30.479 8.653 30.181 8.653C29.611 8.653 29.264 8.28 29.264 7.708C29.264 7.136 29.611 6.689 30.132 6.689C30.727 6.689 30.901 7.236 30.901 7.559V7.733H29.586ZM30.578 7.509C30.578 7.286 30.478 6.962 30.107 6.962C29.76 6.962 29.611 7.286 29.587 7.509H30.578ZM32.662 8.552C32.563 8.602 32.365 8.652 32.117 8.652C31.547 8.652 31.199 8.279 31.199 7.707C31.199 7.135 31.596 6.713 32.191 6.713C32.39 6.713 32.563 6.763 32.662 6.813L32.588 7.061C32.4686 6.98885 32.3303 6.95403 32.191 6.961C31.77 6.961 31.521 7.285 31.521 7.682C31.521 8.105 31.794 8.378 32.166 8.378C32.365 8.378 32.489 8.328 32.588 8.278L32.662 8.552ZM34.598 8.105C34.598 8.304 34.598 8.478 34.622 8.602H34.325L34.3 8.304C34.2368 8.41181 34.1461 8.50086 34.0372 8.56202C33.9282 8.62318 33.8049 8.65423 33.68 8.652C33.382 8.652 33.035 8.478 33.035 7.832V6.737H33.382V7.756C33.382 8.104 33.506 8.352 33.804 8.352C34.027 8.352 34.201 8.203 34.25 8.029C34.275 7.979 34.275 7.929 34.275 7.855V6.713H34.622V8.105H34.598ZM35.167 7.335C35.167 7.111 35.167 6.937 35.143 6.763H35.44L35.465 7.136C35.4976 7.02269 35.5657 6.92284 35.6593 6.85118C35.7529 6.77952 35.8671 6.73984 35.985 6.738H36.085V7.061H35.961C35.713 7.061 35.564 7.235 35.515 7.484V8.652H35.167V7.335ZM36.606 6.415C36.5469 6.415 36.4901 6.39151 36.4483 6.34968C36.4065 6.30786 36.383 6.25114 36.383 6.192C36.383 6.067 36.482 5.968 36.606 5.968C36.73 5.968 36.829 6.068 36.829 6.192C36.829 6.316 36.755 6.415 36.606 6.415ZM36.78 8.627H36.457V6.763H36.804V8.627H36.78ZM37.749 6.316V6.763H38.245V7.012H37.749V8.03C37.749 8.253 37.823 8.403 37.997 8.403C38.097 8.403 38.146 8.403 38.195 8.378L38.22 8.626C38.1244 8.65882 38.0241 8.67571 37.923 8.676C37.854 8.67779 37.7854 8.6654 37.7214 8.6396C37.6574 8.6138 37.5994 8.57513 37.551 8.526C37.451 8.427 37.427 8.253 37.427 8.03V7.01H37.129V6.762H37.427V6.414L37.749 6.314V6.316ZM38.789 6.763L39.186 7.857C39.236 7.981 39.285 8.13 39.31 8.229C39.334 8.13 39.384 7.981 39.434 7.832L39.806 6.738H40.153L39.632 8.08C39.384 8.726 39.235 9.05 38.987 9.248C38.867 9.35586 38.7225 9.43275 38.566 9.472L38.491 9.199C38.6023 9.16455 38.7043 9.10502 38.789 9.025C38.9107 8.9263 39.0047 8.7978 39.062 8.652C39.086 8.627 39.086 8.602 39.086 8.577C39.086 8.553 39.086 8.527 39.062 8.503L38.367 6.788H38.789V6.763ZM27.454 12.058C27.603 12.158 27.826 12.232 28.049 12.232C28.397 12.232 28.595 12.058 28.595 11.784C28.595 11.536 28.446 11.411 28.099 11.262C27.677 11.113 27.405 10.89 27.405 10.517C27.405 10.119 27.752 9.821 28.248 9.821C28.521 9.821 28.694 9.871 28.818 9.945L28.718 10.218C28.5677 10.1314 28.3963 10.0885 28.223 10.094C27.876 10.094 27.727 10.318 27.727 10.492C27.727 10.74 27.876 10.865 28.247 10.989C28.694 11.163 28.893 11.362 28.893 11.759C28.893 12.157 28.595 12.505 28 12.505C27.752 12.505 27.479 12.43 27.33 12.331L27.454 12.058ZM29.76 10.169V10.616H30.257V10.865H29.761V11.859C29.761 12.082 29.835 12.232 30.009 12.232C30.108 12.232 30.157 12.232 30.207 12.207L30.232 12.455C30.1361 12.4879 30.0354 12.5048 29.934 12.505C29.865 12.5068 29.7964 12.4944 29.7324 12.4686C29.6684 12.4428 29.6104 12.4041 29.562 12.355C29.463 12.256 29.438 12.082 29.438 11.859V10.839H29.141V10.591H29.438V10.243L29.761 10.169H29.76ZM31.942 12.033C31.942 12.207 31.942 12.356 31.967 12.48H31.67L31.645 12.256C31.545 12.406 31.347 12.53 31.075 12.53C31.001 12.5341 30.9269 12.523 30.8573 12.4973C30.7878 12.4715 30.7243 12.4318 30.6707 12.3805C30.6172 12.3292 30.5747 12.2675 30.5461 12.1991C30.5174 12.1307 30.5031 12.0571 30.504 11.983C30.504 11.536 30.901 11.287 31.62 11.287V11.237C31.62 11.088 31.57 10.79 31.198 10.815C31.0216 10.8146 30.849 10.8664 30.702 10.964L30.628 10.74C30.777 10.64 31 10.591 31.248 10.591C31.818 10.591 31.968 10.989 31.968 11.361V12.033H31.942ZM31.62 11.536C31.248 11.536 30.826 11.586 30.826 11.958C30.826 12.182 30.976 12.281 31.149 12.281C31.249 12.2859 31.3477 12.2566 31.4288 12.1979C31.5099 12.1392 31.5685 12.0545 31.595 11.958C31.595 11.933 31.62 11.884 31.62 11.858V11.536ZM32.49 11.113C32.49 10.913 32.49 10.765 32.465 10.616H32.762L32.787 10.914C32.8488 10.805 32.9392 10.7149 33.0485 10.6536C33.1578 10.5922 33.2817 10.5619 33.407 10.566C33.655 10.566 34.077 10.715 34.077 11.361V12.48H33.73V11.41C33.73 11.113 33.606 10.864 33.308 10.864C33.2052 10.863 33.1052 10.8968 33.0242 10.96C32.9432 11.0233 32.886 11.1121 32.862 11.212C32.8416 11.2592 32.833 11.3107 32.837 11.362V12.48H32.49V11.113ZM36.233 9.745V12.007C36.233 12.181 36.233 12.355 36.258 12.479H35.96L35.935 12.156C35.8765 12.2696 35.7875 12.3647 35.678 12.4306C35.5685 12.4965 35.4428 12.5305 35.315 12.529C34.869 12.529 34.521 12.156 34.521 11.584C34.521 10.963 34.918 10.59 35.365 10.59C35.662 10.59 35.835 10.714 35.935 10.864V9.745H36.233ZM35.886 11.361C35.886 11.311 35.886 11.261 35.861 11.211C35.8395 11.0964 35.7777 10.9933 35.6866 10.9205C35.5956 10.8476 35.4815 10.8099 35.365 10.814C35.018 10.814 34.795 11.112 34.795 11.534C34.795 11.907 34.993 12.23 35.34 12.23C35.563 12.23 35.762 12.081 35.836 11.833C35.861 11.783 35.861 11.733 35.861 11.683V11.361H35.886ZM38.12 12.033C38.12 12.207 38.12 12.356 38.145 12.48H37.847L37.822 12.256C37.723 12.406 37.525 12.53 37.252 12.53C37.178 12.534 37.1041 12.5227 37.0346 12.4969C36.9652 12.4712 36.9018 12.4314 36.8484 12.3801C36.7949 12.3288 36.7526 12.2671 36.724 12.1988C36.6954 12.1305 36.6811 12.0571 36.682 11.983C36.682 11.536 37.078 11.287 37.798 11.287V11.237C37.798 11.088 37.748 10.79 37.376 10.815C37.1996 10.8146 37.027 10.8664 36.88 10.964L36.806 10.74C36.954 10.64 37.178 10.591 37.426 10.591C37.996 10.591 38.145 10.989 38.145 11.361V12.033H38.12ZM37.773 11.536C37.401 11.536 36.979 11.586 36.979 11.958C36.979 12.182 37.128 12.281 37.302 12.281C37.402 12.2859 37.5007 12.2566 37.5818 12.1979C37.6629 12.1392 37.7215 12.0545 37.748 11.958C37.748 11.933 37.773 11.884 37.773 11.858V11.536ZM38.665 11.188C38.665 10.964 38.665 10.79 38.641 10.616H38.938L38.963 10.989H38.988C39.0206 10.8757 39.0887 10.7758 39.1823 10.7042C39.2759 10.6325 39.3901 10.5928 39.508 10.591H39.608V10.914H39.484C39.236 10.914 39.087 11.088 39.037 11.337V12.505H38.69L38.665 11.188ZM41.492 9.745V12.007C41.492 12.181 41.492 12.355 41.517 12.479H41.219L41.194 12.156C41.1326 12.2724 41.0396 12.3692 40.9257 12.4352C40.8118 12.5012 40.6816 12.5337 40.55 12.529C40.103 12.529 39.756 12.156 39.756 11.584C39.756 10.963 40.128 10.59 40.599 10.59C40.897 10.59 41.07 10.714 41.169 10.864V9.745H41.492ZM41.17 11.361C41.17 11.311 41.17 11.261 41.145 11.211C41.1199 11.0982 41.0571 10.9974 40.9669 10.9252C40.8767 10.853 40.7645 10.8138 40.649 10.814C40.302 10.814 40.103 11.112 40.103 11.534C40.103 11.907 40.302 12.23 40.649 12.23C40.872 12.23 41.095 12.081 41.145 11.833C41.145 11.783 41.17 11.733 41.17 11.683V11.361ZM42.012 12.132C42.112 12.206 42.285 12.256 42.458 12.256C42.706 12.256 42.806 12.132 42.806 11.983C42.806 11.809 42.706 11.734 42.458 11.635C42.111 11.51 41.962 11.336 41.962 11.113C41.962 10.814 42.21 10.566 42.607 10.566C42.806 10.566 42.954 10.616 43.054 10.69L42.979 10.939C42.8675 10.8699 42.7381 10.8351 42.607 10.839C42.409 10.839 42.31 10.964 42.31 11.088C42.31 11.237 42.409 11.312 42.657 11.411C42.979 11.535 43.153 11.684 43.153 11.983C43.153 12.306 42.905 12.554 42.458 12.554C42.26 12.554 42.062 12.504 41.938 12.43L42.012 12.132ZM46.228 12.405C46.104 12.455 45.856 12.529 45.534 12.529C44.814 12.529 44.244 12.057 44.244 11.212C44.244 10.392 44.79 9.845 45.608 9.845C45.931 9.845 46.129 9.919 46.228 9.969L46.154 10.242C46.03 10.192 45.856 10.142 45.633 10.142C45.013 10.142 44.616 10.541 44.616 11.212C44.616 11.858 44.988 12.256 45.608 12.256C45.807 12.256 46.03 12.206 46.154 12.156L46.228 12.405ZM47.344 12.53C46.848 12.53 46.451 12.157 46.451 11.56C46.451 10.939 46.873 10.566 47.369 10.566C47.914 10.566 48.262 10.964 48.262 11.51C48.262 12.206 47.79 12.53 47.344 12.53ZM47.344 12.256C47.666 12.256 47.914 11.958 47.914 11.536C47.914 11.212 47.766 10.814 47.344 10.814C46.947 10.814 46.774 11.187 46.774 11.535C46.798 11.958 47.022 12.256 47.344 12.256ZM50.246 11.958C50.246 12.157 50.246 12.331 50.271 12.455H49.973L49.948 12.157C49.8847 12.2646 49.7939 12.3535 49.685 12.4145C49.576 12.4754 49.4528 12.5063 49.328 12.504C49.031 12.504 48.684 12.331 48.684 11.684V10.591H49.031V11.61C49.031 11.958 49.13 12.206 49.452 12.206C49.676 12.206 49.824 12.057 49.899 11.883C49.924 11.833 49.924 11.783 49.924 11.709V10.566H50.271V11.958H50.246ZM50.818 11.113C50.818 10.913 50.818 10.765 50.793 10.616H51.091L51.115 10.914C51.1768 10.805 51.2672 10.7149 51.3765 10.6536C51.4858 10.5922 51.6097 10.5619 51.735 10.566C51.983 10.566 52.405 10.715 52.405 11.361V12.48H52.058V11.41C52.058 11.113 51.934 10.864 51.636 10.864C51.5332 10.863 51.4332 10.8968 51.3522 10.96C51.2712 11.0233 51.214 11.1121 51.19 11.212C51.165 11.262 51.165 11.312 51.165 11.362V12.48H50.818V11.113ZM54.29 12.405C54.19 12.455 54.017 12.505 53.744 12.505C53.174 12.505 52.826 12.132 52.826 11.56C52.826 10.988 53.223 10.566 53.818 10.566C54.017 10.566 54.19 10.616 54.289 10.666L54.215 10.914C54.0956 10.8418 53.9573 10.807 53.818 10.814C53.397 10.814 53.148 11.138 53.148 11.535C53.148 11.958 53.421 12.231 53.793 12.231C53.992 12.231 54.116 12.181 54.215 12.131L54.289 12.405H54.29ZM54.835 10.268C54.8055 10.2681 54.7764 10.2624 54.7491 10.2512C54.7219 10.24 54.6971 10.2235 54.6763 10.2027C54.6555 10.1819 54.639 10.1571 54.6278 10.1299C54.6166 10.1026 54.6109 10.0735 54.611 10.044C54.611 9.92 54.711 9.821 54.835 9.821C54.959 9.821 55.058 9.921 55.058 10.044C55.058 10.169 54.983 10.268 54.835 10.268ZM55.008 12.48H54.661V10.616H55.008V12.48ZM55.925 9.745H55.578V12.479H55.925V9.745ZM25.718 11.237L5.803 17.5L0 1.668L20.907 0.5L25.718 11.237Z" fill="#02797E"/>
<path d="M10.6651 8.05523C10.6651 8.45223 10.5661 8.80023 10.3931 9.12423C10.2122 9.43818 9.95669 9.70266 9.64914 9.89423C9.32614 10.0932 8.92914 10.2422 8.48314 10.3412C8.03714 10.4412 7.54114 10.4912 6.97014 10.4912H6.57314V12.5292H3.99414V5.74323H7.02014C8.16014 5.74323 9.05314 5.94323 9.69814 6.31523C10.3431 6.68823 10.6651 7.28523 10.6651 8.05523ZM8.18514 8.08023C8.18514 7.48323 7.73914 7.18524 6.87114 7.18524H6.54914V8.99923H6.84614C7.26814 8.99923 7.61514 8.92523 7.83814 8.77623C8.06114 8.65123 8.18514 8.40323 8.18514 8.08023ZM17.0631 12.5302C16.6134 12.6142 16.1567 12.6557 15.6991 12.6542C14.9791 12.6542 14.3351 12.5792 13.7891 12.4052C13.2191 12.2312 12.7471 12.0082 12.3511 11.7092C11.9681 11.4239 11.6614 11.0485 11.4581 10.6162C11.2573 10.1623 11.1557 9.67063 11.1601 9.17423C11.1601 8.65223 11.2601 8.18023 11.4831 7.73323C11.7061 7.31023 12.0031 6.93823 12.4001 6.61423C12.8276 6.29641 13.3057 6.05299 13.8141 5.89423C14.3591 5.72023 14.9541 5.64523 15.6001 5.64523C16.0961 5.64523 16.5671 5.67023 16.9881 5.74523C17.4101 5.84423 17.4101 5.84423 17.7321 5.96823V7.78323C17.4626 7.62291 17.1698 7.50551 16.8641 7.43524C16.5421 7.33524 16.1941 7.28523 15.8481 7.28523C15.2521 7.28523 14.7811 7.45924 14.4091 7.75823C14.0371 8.08123 13.8631 8.52823 13.8631 9.15023C13.8631 9.44823 13.9131 9.72123 14.0371 9.97023C14.1611 10.1932 14.3101 10.3922 14.5081 10.5412C14.7071 10.6912 14.9301 10.8152 15.2031 10.8892C15.4761 10.9642 15.7481 11.0142 16.0461 11.0142C16.3441 11.0142 16.6661 10.9892 16.9641 10.9142C17.2611 10.8402 17.5841 10.7652 17.9061 10.6162V12.3312C17.5091 12.4312 17.4601 12.4552 17.0631 12.5302ZM21.5771 5.74323H18.9731V12.5532H21.5771V5.74323ZM21.8501 3.60623C21.8501 4.05423 21.7001 4.42623 21.4031 4.67523C21.1051 4.92323 20.7331 5.07323 20.2871 5.07323C19.8411 5.07323 19.4691 4.94823 19.1711 4.67523C18.8731 4.42623 18.7251 4.05423 18.7251 3.60623C18.7251 3.13423 18.8731 2.78623 19.1711 2.51323C19.4691 2.23923 19.8411 2.11523 20.2871 2.11523C20.7331 2.11523 21.1051 2.23923 21.4031 2.51323C21.7011 2.76123 21.8491 3.13423 21.8491 3.60623H21.8501Z" fill="white"/>
<path d="M56.0001 6.58995C55.9988 6.69273 55.9772 6.79423 55.9366 6.88863C55.8959 6.98303 55.837 7.06846 55.7632 7.14002C55.6894 7.21157 55.6022 7.26784 55.5066 7.30558C55.411 7.34333 55.3089 7.3618 55.2061 7.35995C55.1033 7.3618 55.0012 7.34333 54.9056 7.30558C54.81 7.26784 54.7228 7.21157 54.649 7.14002C54.5752 7.06846 54.5163 6.98303 54.4757 6.88863C54.435 6.79423 54.4134 6.69273 54.4121 6.58995C54.4134 6.48718 54.435 6.38567 54.4757 6.29127C54.5163 6.19687 54.5752 6.11144 54.649 6.03988C54.7228 5.96833 54.81 5.91206 54.9056 5.87432C55.0012 5.83657 55.1033 5.8181 55.2061 5.81995C55.3088 5.81823 55.4108 5.83681 55.5063 5.87461C55.6018 5.91241 55.6889 5.9687 55.7625 6.04024C55.8362 6.11178 55.895 6.19717 55.9356 6.29151C55.9762 6.38584 55.9978 6.48726 55.9991 6.58995H56.0001ZM54.6601 6.58995C54.6601 6.91295 54.9081 7.16095 55.2061 7.16095C55.5281 7.16095 55.7511 6.91295 55.7511 6.58995C55.7525 6.51463 55.7387 6.43981 55.7105 6.36994C55.6824 6.30006 55.6405 6.23655 55.5873 6.1832C55.5341 6.12984 55.4708 6.08771 55.401 6.05932C55.3312 6.03094 55.2564 6.01687 55.1811 6.01795C54.8831 6.01795 54.6611 6.26695 54.6611 6.58995H54.6601ZM55.1071 6.96195H54.8831V6.24195C54.9331 6.24195 55.0571 6.21695 55.2061 6.21695C55.3551 6.21695 55.4291 6.24195 55.4791 6.26695C55.5291 6.29095 55.5531 6.34095 55.5531 6.41595C55.5531 6.48995 55.4791 6.53995 55.3791 6.56495C55.4541 6.58995 55.5031 6.63895 55.5291 6.73895C55.5531 6.83895 55.5531 6.88795 55.5781 6.91295H55.3301C55.3051 6.88795 55.3051 6.81295 55.2801 6.76295C55.2551 6.68895 55.2301 6.66395 55.1561 6.66395H55.0821V6.96195H55.1071ZM55.1311 6.56495H55.2061C55.2801 6.56495 55.3301 6.53995 55.3301 6.48995C55.3301 6.43995 55.2801 6.38995 55.2061 6.38995H55.1311V6.56495Z" fill="#02797E"/>
</svg>
