<svg width="22" height="14" viewBox="0 0 22 14" fill="none" xmlns="http://www.w3.org/2000/svg">
<path d="M13.3594 1.89014H7.67188V12.1107H13.3594V1.89014Z" fill="#FF5F00"/>
<path d="M8.03419 7C8.03329 6.01568 8.25635 5.04406 8.68646 4.15869C9.11658 3.27332 9.74249 2.49741 10.5168 1.8897C9.55793 1.136 8.40634 0.667281 7.19366 0.537123C5.98098 0.406966 4.75615 0.620615 3.65916 1.15366C2.56217 1.68671 1.63729 2.51764 0.990217 3.55148C0.343147 4.58532 0 5.78036 0 7C0 8.21964 0.343147 9.41467 0.990217 10.4485C1.63729 11.4824 2.56217 12.3133 3.65916 12.8463C4.75615 13.3794 5.98098 13.593 7.19366 13.4629C8.40634 13.3327 9.55793 12.864 10.5168 12.1103C9.7425 11.5026 9.11659 10.7267 8.68647 9.8413C8.25636 8.95593 8.0333 7.98431 8.03419 7Z" fill="#EB001B"/>
<path d="M21.0321 7C21.0322 8.21962 20.6891 9.41465 20.042 10.4485C19.395 11.4823 18.4701 12.3133 17.3732 12.8463C16.2762 13.3794 15.0514 13.593 13.8387 13.4629C12.6261 13.3327 11.4745 12.864 10.5156 12.1103C11.2893 11.502 11.9147 10.7259 12.3447 9.84071C12.7748 8.95548 12.9982 7.98416 12.9982 7C12.9982 6.01584 12.7748 5.04452 12.3447 4.15929C11.9147 3.27406 11.2893 2.49803 10.5156 1.88971C11.4745 1.136 12.6261 0.667278 13.8387 0.537122C15.0514 0.406966 16.2762 0.620624 17.3732 1.15368C18.4701 1.68673 19.395 2.51767 20.042 3.55151C20.6891 4.58535 21.0322 5.78038 21.0321 7Z" fill="#F79E1B"/>
<path d="M20.4137 11.0291V10.8199H20.4981V10.7773H20.2832V10.8199H20.3676V11.0291H20.4137ZM20.8309 11.0291V10.7769H20.765L20.6893 10.9504L20.6135 10.7769H20.5476V11.0291H20.5941V10.8388L20.6651 11.0029H20.7134L20.7844 10.8384V11.0291H20.8309Z" fill="#F79E1B"/>
</svg>
