<svg version="1.1" xmlns="http://www.w3.org/2000/svg" xmlns:xlink="http://www.w3.org/1999/xlink">
    

    <symbol id="burgerMenu" viewBox="0 0 22 14">
        <path d="M20.4508 13H1.5498M20.4508 7H1.5498M20.4508 1H1.5498" stroke="#C7A17A" stroke-width="1.5" stroke-linecap="round" stroke-linejoin="round"/>
    </symbol>

    <symbol viewBox="0 0 24 24" id="bag2">
        <path d="M15.7729 9.30504V6.27304C15.7729 4.18904 14.0839 2.50004 12.0009 2.50004C9.91694 2.49104 8.21994 4.17204 8.21094 6.25604V6.27304V9.30504" stroke="#C7A17A" stroke-width="1.5" stroke-linecap="round" stroke-linejoin="round"></path>
        <path fill-rule="evenodd" clip-rule="evenodd" d="M16.7422 21.0001H7.25778C4.90569 21.0001 3 19.0951 3 16.7451V11.2291C3 8.87912 4.90569 6.97412 7.25778 6.97412H16.7422C19.0943 6.97412 21 8.87912 21 11.2291V16.7451C21 19.0951 19.0943 21.0001 16.7422 21.0001Z" stroke="#C7A17A" stroke-width="1.5" stroke-linecap="round" stroke-linejoin="round"></path>
    </symbol>

    <symbol  viewBox="0 0 20 20" id="bag4">
        <path fill-rule="evenodd" clip-rule="evenodd" d="M14.4184 4.47H14.6232C17.3152 4.47 19.5 6.72 19.5 9.48V15C19.5 17.76 17.3152 20 14.6232 20H5.3768C2.6848 20 0.5 17.76 0.5 15V9.48C0.5 6.72 2.6848 4.47 5.3768 4.47H5.58162C5.60113 3.27 6.05955 2.15 6.8886 1.31C7.72741 0.46 8.80031 0.03 10.0098 0C12.4286 0 14.3891 2 14.4184 4.47ZM7.91273 2.38C7.36653 2.94 7.06417 3.68 7.04466 4.47H12.9553C12.9261 2.83 11.6191 1.5 10.0098 1.5C9.25873 1.5 8.47844 1.81 7.91273 2.38ZM13.7064 8.32C14.116 8.32 14.4379 7.98 14.4379 7.57V6.41C14.4379 6 14.116 5.66 13.7064 5.66C13.3065 5.66 12.9748 6 12.9748 6.41V7.57C12.9748 7.98 13.3065 8.32 13.7064 8.32ZM6.93737 7.57C6.93737 7.98 6.6155 8.32 6.20585 8.32C5.80595 8.32 5.47433 7.98 5.47433 7.57V6.41C5.47433 6 5.80595 5.66 6.20585 5.66C6.6155 5.66 6.93737 6 6.93737 6.41V7.57Z" fill="CurrentColor"></path>
    </symbol>




    <symbol viewBox="0 0 14 25" id="facebook">
        <path d="M13.8082 9.99631L13.0827 14.501H9.26942V24.5H4.15528V14.501H0V9.99631H4.15528V6.56303C4.15528 2.65795 6.59731 0.5 10.337 0.5C12.1269 0.5 14 0.804369 14 0.804369V4.63942H11.9352C9.90228 4.63942 9.26942 5.8417 9.26942 7.07437V9.99631H13.8082Z" fill="CurrentColor"></path>
    </symbol>

    <symbol id="github" viewBox="0 0 26 26">
        <path d="M8.37891 20.4609C8.37891 20.3594 8.27734 20.2578 8.125 20.2578C7.97266 20.2578 7.87109 20.3594 7.87109 20.4609C7.87109 20.5625 7.97266 20.6641 8.125 20.6133C8.27734 20.6133 8.37891 20.5625 8.37891 20.4609ZM6.80469 20.207C6.80469 20.3086 6.90625 20.4609 7.05859 20.4609C7.16016 20.5117 7.3125 20.4609 7.36328 20.3594C7.36328 20.2578 7.3125 20.1562 7.16016 20.1055C7.00781 20.0547 6.85547 20.1055 6.80469 20.207ZM9.08984 20.1562C8.9375 20.1562 8.83594 20.2578 8.83594 20.4102C8.83594 20.5117 8.98828 20.5625 9.14062 20.5117C9.29297 20.4609 9.39453 20.4102 9.34375 20.3086C9.34375 20.207 9.19141 20.1055 9.08984 20.1562ZM12.3906 0.65625C5.38281 0.65625 0 6.03906 0 13.0469C0 18.6836 3.50391 23.5078 8.58203 25.2344C9.24219 25.3359 9.44531 24.9297 9.44531 24.625C9.44531 24.2695 9.44531 22.543 9.44531 21.4766C9.44531 21.4766 5.89062 22.2383 5.12891 19.9531C5.12891 19.9531 4.57031 18.4805 3.75781 18.125C3.75781 18.125 2.58984 17.3125 3.80859 17.3125C3.80859 17.3125 5.07812 17.4141 5.78906 18.6328C6.90625 20.6133 8.73438 20.0547 9.49609 19.6992C9.59766 18.8867 9.90234 18.3281 10.3086 17.9727C7.46484 17.668 4.57031 17.2617 4.57031 12.3867C4.57031 10.9648 4.97656 10.3047 5.78906 9.39062C5.63672 9.03516 5.23047 7.71484 5.94141 5.9375C6.95703 5.63281 9.44531 7.30859 9.44531 7.30859C10.4609 7.00391 11.5273 6.90234 12.5938 6.90234C13.7109 6.90234 14.7773 7.00391 15.793 7.30859C15.793 7.30859 18.2305 5.58203 19.2969 5.9375C20.0078 7.71484 19.5508 9.03516 19.4492 9.39062C20.2617 10.3047 20.7695 10.9648 20.7695 12.3867C20.7695 17.2617 17.7734 17.668 14.9297 17.9727C15.3867 18.3789 15.793 19.1406 15.793 20.3594C15.793 22.0352 15.7422 24.168 15.7422 24.5742C15.7422 24.9297 15.9961 25.3359 16.6562 25.1836C21.7344 23.5078 25.1875 18.6836 25.1875 13.0469C25.1875 6.03906 19.4492 0.65625 12.3906 0.65625ZM4.92578 18.1758C4.82422 18.2266 4.875 18.3789 4.92578 18.4805C5.02734 18.5312 5.12891 18.582 5.23047 18.5312C5.28125 18.4805 5.28125 18.3281 5.17969 18.2266C5.07812 18.1758 4.97656 18.125 4.92578 18.1758ZM4.36719 17.7695C4.31641 17.8711 4.36719 17.9219 4.46875 17.9727C4.57031 18.0234 4.67188 18.0234 4.72266 17.9219C4.72266 17.8711 4.67188 17.8203 4.57031 17.7695C4.46875 17.7188 4.41797 17.7188 4.36719 17.7695ZM5.99219 19.5977C5.94141 19.6484 5.94141 19.8008 6.09375 19.9023C6.19531 20.0039 6.34766 20.0547 6.39844 19.9531C6.44922 19.9023 6.44922 19.75 6.34766 19.6484C6.24609 19.5469 6.09375 19.4961 5.99219 19.5977ZM5.43359 18.8359C5.33203 18.8867 5.33203 19.0391 5.43359 19.1406C5.53516 19.2422 5.63672 19.293 5.73828 19.2422C5.78906 19.1914 5.78906 19.0391 5.73828 18.9375C5.63672 18.8359 5.53516 18.7852 5.43359 18.8359Z"/>
    </symbol>

    <symbol viewBox="0 0 24 25" id="instagram">
        <path d="M20.1 6.13585C20.1 7.09446 19.3229 7.87157 18.3643 7.87157C17.4057 7.87157 16.6286 7.09446 16.6286 6.13585C16.6286 5.17725 17.4057 4.40014 18.3643 4.40014C19.3229 4.40014 20.1 5.17725 20.1 6.13585Z" fill="CurrentColor"></path>
        <path fill-rule="evenodd" clip-rule="evenodd" d="M12 18.2859C15.1954 18.2859 17.7857 15.6955 17.7857 12.5001C17.7857 9.30478 15.1954 6.71443 12 6.71443C8.80465 6.71443 6.2143 9.30478 6.2143 12.5001C6.2143 15.6955 8.80465 18.2859 12 18.2859ZM12 15.9716C13.9172 15.9716 15.4714 14.4174 15.4714 12.5001C15.4714 10.5829 13.9172 9.02871 12 9.02871C10.0828 9.02871 8.52859 10.5829 8.52859 12.5001C8.52859 14.4174 10.0828 15.9716 12 15.9716Z" fill="CurrentColor"></path>
        <path fill-rule="evenodd" clip-rule="evenodd" d="M0.428589 12.0373C0.428589 8.14892 0.428589 6.20474 1.18531 4.71958C1.85095 3.41319 2.91307 2.35107 4.21945 1.68544C5.70461 0.928711 7.6488 0.928711 11.5372 0.928711H12.4629C16.3512 0.928711 18.2954 0.928711 19.7806 1.68544C21.087 2.35107 22.1491 3.41319 22.8147 4.71958C23.5714 6.20474 23.5714 8.14892 23.5714 12.0373V12.963C23.5714 16.8514 23.5714 18.7955 22.8147 20.2807C22.1491 21.5871 21.087 22.6492 19.7806 23.3148C18.2954 24.0716 16.3512 24.0716 12.4629 24.0716H11.5372C7.6488 24.0716 5.70461 24.0716 4.21945 23.3148C2.91307 22.6492 1.85095 21.5871 1.18531 20.2807C0.428589 18.7955 0.428589 16.8514 0.428589 12.963V12.0373ZM11.5372 3.243H12.4629C14.4452 3.243 15.7928 3.2448 16.8345 3.3299C17.8491 3.4128 18.368 3.56306 18.7299 3.74748C19.6008 4.19124 20.3089 4.89932 20.7527 5.77024C20.9371 6.13219 21.0874 6.65107 21.1703 7.66568C21.2554 8.70732 21.2572 10.0549 21.2572 12.0373V12.963C21.2572 14.9454 21.2554 16.293 21.1703 17.3346C21.0874 18.3492 20.9371 18.8681 20.7527 19.23C20.3089 20.101 19.6008 20.809 18.7299 21.2528C18.368 21.4372 17.8491 21.5875 16.8345 21.6704C15.7928 21.7555 14.4452 21.7573 12.4629 21.7573H11.5372C9.55479 21.7573 8.2072 21.7555 7.16556 21.6704C6.15094 21.5875 5.63207 21.4372 5.27012 21.2528C4.3992 20.809 3.69112 20.101 3.24736 19.23C3.06293 18.8681 2.91268 18.3492 2.82978 17.3346C2.74467 16.293 2.74287 14.9454 2.74287 12.963V12.0373C2.74287 10.0549 2.74467 8.70732 2.82978 7.66568C2.91268 6.65107 3.06293 6.13219 3.24736 5.77024C3.69112 4.89932 4.3992 4.19124 5.27012 3.74748C5.63207 3.56306 6.15094 3.4128 7.16556 3.3299C8.2072 3.2448 9.55479 3.243 11.5372 3.243Z" fill="CurrentColor"></path>
    </symbol>

    <symbol viewBox="0 0 25 15" id="vk">
        <path d="M4.37526 0.75H1.75026C1.00026 0.75 0.85025 1.10306 0.85025 1.49239C0.85025 2.18766 1.74019 5.63611 4.99393 10.1969C7.16308 13.3116 10.2193 15 13.0003 15C14.6688 15 14.8753 14.625 14.8753 13.9791V11.625C14.8753 10.875 15.0333 10.7253 15.5617 10.7253C15.951 10.7253 16.6185 10.92 18.1759 12.4217C19.9557 14.2016 20.2491 15 21.2503 15H23.8753C24.6253 15 25.0003 14.625 24.7839 13.885C24.5472 13.1474 23.6974 12.0773 22.5699 10.8087C21.958 10.0857 21.0403 9.30705 20.7622 8.91763C20.3728 8.41711 20.4841 8.19458 20.7622 7.74966L20.8089 7.68343C21.2044 7.12124 23.9842 3.13518 24.2941 1.71492C24.4609 1.15871 24.2941 0.75 23.5003 0.75H20.8753C20.2078 0.75 19.9001 1.10306 19.7332 1.49239C19.7332 1.49239 18.3983 4.74618 16.5072 6.85973C15.8954 7.47153 15.6173 7.66619 15.2836 7.66619C15.1168 7.66619 14.8752 7.47153 14.8752 6.91537V1.71492C14.8752 1.04747 14.6815 0.75 14.1253 0.75H10.0003C9.58316 0.75 9.33232 1.05978 9.33232 1.35337C9.33232 1.9861 10.2778 2.13202 10.3753 3.91189V7.77748C10.3753 8.625 10.2222 8.77866 9.88848 8.77866C8.99859 8.77866 6.83393 5.51033 5.55009 1.77052C5.29849 1.04362 5.04614 0.75 4.37526 0.75Z" fill="CurrentColor"></path>
    </symbol>

    <symbol id="linkedin" viewBox="0 0 23 24">
        <path d="M21.125 0.875H1.57422C0.710938 0.875 0 1.63672 0 2.55078V22C0 22.9141 0.710938 23.625 1.57422 23.625H21.125C21.9883 23.625 22.75 22.9141 22.75 22V2.55078C22.75 1.63672 21.9883 0.875 21.125 0.875ZM6.85547 20.375H3.50391V9.55859H6.85547V20.375ZM5.17969 8.03516C4.0625 8.03516 3.19922 7.17188 3.19922 6.10547C3.19922 5.03906 4.0625 4.125 5.17969 4.125C6.24609 4.125 7.10938 5.03906 7.10938 6.10547C7.10938 7.17188 6.24609 8.03516 5.17969 8.03516ZM19.5 20.375H16.0977V15.0938C16.0977 13.875 16.0977 12.25 14.3711 12.25C12.5938 12.25 12.3398 13.6211 12.3398 15.043V20.375H8.98828V9.55859H12.1875V11.0312H12.2383C12.6953 10.168 13.8125 9.25391 15.4375 9.25391C18.8398 9.25391 19.5 11.5391 19.5 14.4336V20.375Z"/>
    </symbol>

    <symbol id="viber" viewBox="0 0 26 27">
        <path d="M22.5469 2.78906C21.8867 2.23047 19.2461 0.300781 13.457 0.300781C13.457 0.300781 6.60156 -0.105469 3.25 2.94141C1.37109 4.82031 0.710938 7.51172 0.660156 10.9141C0.609375 14.2656 0.507812 20.6133 6.60156 22.3398V24.9297C6.60156 24.9297 6.55078 25.9961 7.26172 26.25C8.125 26.5039 8.58203 25.6914 9.39453 24.8281C9.85156 24.3203 10.4609 23.6602 10.918 23.1016C15.082 23.457 18.2812 22.6445 18.6875 22.543C19.5 22.2383 24.2734 21.6289 25.0352 15.332C25.8477 8.78125 24.6797 4.66797 22.5469 2.78906ZM23.207 14.8242C22.5977 20.1055 18.6875 20.4609 17.9766 20.7148C17.6719 20.7656 14.8789 21.4766 11.3242 21.2734C11.3242 21.2734 8.68359 24.4219 7.87109 25.2852C7.61719 25.5391 7.3125 25.5391 7.3125 24.9805C7.3125 24.625 7.3125 20.6133 7.3125 20.6133C2.18359 19.1914 2.48828 13.8086 2.53906 11.0156C2.58984 8.17188 3.09766 5.88672 4.67188 4.3125C7.51562 1.72266 13.3555 2.12891 13.3555 2.12891C18.2812 2.12891 20.6172 3.65234 21.1758 4.10938C23.0039 5.68359 23.918 9.39062 23.207 14.8242ZM16.1484 10.7617C16.0977 9.28906 15.3359 8.47656 13.9141 8.375C13.457 8.375 13.4062 9.03516 13.8633 9.03516C14.9297 9.13672 15.4375 9.64453 15.5391 10.7617C15.5391 11.2188 16.1992 11.168 16.1484 10.7617ZM17.2148 11.3203C17.2148 11.7266 17.875 11.7773 17.875 11.3203C17.9258 8.88281 16.3516 6.85156 13.4062 6.64844C12.9492 6.59766 12.8984 7.25781 13.3555 7.30859C15.8945 7.46094 17.2656 9.1875 17.2148 11.3203ZM19.6016 11.9805C19.5508 7.5625 16.5547 4.97266 12.7969 4.92188C12.3906 4.92188 12.3906 5.58203 12.7969 5.58203C16.1484 5.63281 18.8906 7.86719 18.9414 11.9805C18.9414 12.4375 19.6016 12.4375 19.6016 11.9805ZM18.9922 16.957C19.2461 16.5 19.1953 16.0938 18.8398 15.7891C18.1797 15.1797 17.2656 14.5195 16.5039 14.1133C15.9453 13.8086 15.3867 14.0117 15.1328 14.3164L14.6758 14.9258C14.4219 15.2305 13.9648 15.1797 13.9648 15.1797C10.5625 14.3164 9.64844 10.9141 9.64844 10.9141C9.64844 10.9141 9.64844 10.457 9.95312 10.2031L10.5625 9.69531C10.8672 9.44141 11.0195 8.88281 10.7148 8.32422C10.5625 8.01953 10.207 7.46094 9.95312 7.15625C9.69922 6.75 9.03906 6.03906 9.03906 6.03906C8.78516 5.63281 8.32812 5.58203 7.87109 5.83594H7.82031C6.85547 6.34375 5.78906 7.41016 6.14453 8.42578C6.14453 8.42578 6.39844 9.33984 7.46484 11.2695C7.97266 12.2344 8.53125 12.9961 9.03906 13.6562C9.59766 14.3672 10.3594 15.1289 11.1719 15.7891C12.7969 17.0586 15.2852 18.3789 16.3516 18.6836H16.4023C17.418 19.0391 18.4844 17.9727 18.9922 17.0078V16.957Z"/>
    </symbol>

    <symbol viewBox="0 0 18 20" id="location">
        <path fill-rule="evenodd" clip-rule="evenodd" d="M0.5 8.31776C0.5 3.71789 4.34388 0 8.99345 0C13.6561 0 17.5 3.71789 17.5 8.31776C17.5 10.6357 16.657 12.7876 15.2695 14.6116C13.7388 16.6235 11.8522 18.3765 9.72854 19.7524C9.24251 20.0704 8.80387 20.0944 8.27045 19.7524C6.13474 18.3765 4.24809 16.6235 2.7305 14.6116C1.34198 12.7876 0.5 10.6357 0.5 8.31776ZM6.19423 8.57675C6.19423 10.1177 7.45166 11.3297 8.99345 11.3297C10.5362 11.3297 11.8058 10.1177 11.8058 8.57675C11.8058 7.0478 10.5362 5.77683 8.99345 5.77683C7.45166 5.77683 6.19423 7.0478 6.19423 8.57675Z" fill="CurrentColor"></path>
    </symbol>

</svg>